<?xml version="1.0" standalone="no"?>
<!DOCTYPE svg PUBLIC "-//W3C//DTD SVG 20010904//EN"
 "http://www.w3.org/TR/2001/REC-SVG-20010904/DTD/svg10.dtd">
<svg version="1.0" xmlns="http://www.w3.org/2000/svg"
 width="700.000000pt" height="700.000000pt" viewBox="0 0 700.000000 700.000000"
 preserveAspectRatio="xMidYMid meet">
<metadata>
Created by potrace 1.11, written by Peter Selinger 2001-2013
</metadata>
<g transform="translate(0.000000,700.000000) scale(0.100000,-0.100000)"
fill="#000000" stroke="none">
<path d="M1327 6124 c-1 -1 -38 -4 -82 -8 -44 -3 -91 -8 -105 -11 -14 -3 -38
-8 -55 -11 -208 -37 -465 -160 -622 -298 -126 -111 -237 -252 -312 -396 -50
-98 -113 -284 -127 -375 -4 -27 -9 -57 -11 -65 -2 -8 -6 -78 -7 -155 -4 -140
3 -226 28 -346 10 -47 67 -234 83 -269 8 -19 19 -44 23 -55 78 -196 277 -521
441 -720 147 -177 230 -267 429 -465 243 -242 267 -264 536 -495 355 -305 499
-430 504 -435 3 -3 101 -85 217 -182 169 -141 215 -175 225 -165 7 7 51 43 98
82 47 38 102 85 123 105 l38 36 -43 64 c-259 387 -384 767 -372 1135 3 95 10
167 18 206 3 13 7 38 10 54 14 101 75 284 137 407 42 84 133 230 160 258 8 8
22 26 31 39 58 83 244 249 373 332 112 72 355 190 355 172 0 -3 6 -1 13 5 12
10 236 68 297 76 110 15 167 19 280 20 237 2 502 -56 726 -160 l79 -36 61 30
62 31 8 63 c10 85 12 271 2 333 -4 28 -9 66 -12 85 -12 100 -67 270 -126 385
-37 71 -106 180 -134 212 -6 7 -31 36 -56 65 -93 111 -277 249 -420 315 -277
128 -619 170 -900 109 -250 -54 -511 -185 -737 -369 l-83 -68 -92 74 c-99 78
-248 181 -248 170 0 -3 -8 1 -18 10 -52 47 -346 162 -477 186 -94 18 -307 34
-318 25z"/>
<path d="M3902 4078 c-431 -48 -752 -269 -904 -623 -67 -159 -95 -364 -73
-535 31 -230 168 -516 374 -779 96 -123 128 -159 291 -321 159 -159 194 -191
337 -310 59 -49 115 -96 123 -103 8 -7 87 -71 175 -142 88 -71 162 -132 165
-135 4 -5 267 -213 377 -299 26 -19 48 -29 55 -25 13 7 213 162 253 195 11 10
70 57 131 106 61 48 128 103 150 121 21 17 82 67 134 109 592 479 902 821
1080 1188 94 194 130 330 134 505 9 333 -131 628 -389 824 -157 119 -324 186
-535 216 -77 11 -246 14 -290 5 -13 -2 -42 -7 -65 -10 -161 -24 -345 -101
-519 -219 l-94 -64 -94 63 c-203 137 -402 214 -598 230 -118 10 -151 11 -218
3z"/>
</g>
</svg>
